<?xml version="1.0" encoding="UTF-8" standalone="no"?>
<!DOCTYPE svg PUBLIC "-//W3C//DTD SVG 1.1//EN"
 "http://www.w3.org/Graphics/SVG/1.1/DTD/svg11.dtd">
<!-- Generated by graphviz version 2.47.0 (20210316.0004)
 -->
<!-- Title: dependencies Pages: 1 -->
<svg width="1324pt" height="211pt"
 viewBox="0.00 0.00 1324.00 211.00" xmlns="http://www.w3.org/2000/svg" xmlns:xlink="http://www.w3.org/1999/xlink">
<g id="graph0" class="graph" transform="scale(1 1) rotate(0) translate(4 207)">
<title>dependencies</title>
<polygon fill="white" stroke="transparent" points="-4,4 -4,-207 1320,-207 1320,4 -4,4"/>
<text text-anchor="start" x="637.01" y="-42.4" font-family="sans-serif" font-weight="bold" font-size="14.00">Legend</text>
<polygon fill="#ffffb3" stroke="transparent" points="424,-10 424,-30 444,-30 444,-10 424,-10"/>
<text text-anchor="start" x="447.63" y="-15.4" font-family="sans-serif" font-size="14.00"> &#160;Declarations</text>
<polygon fill="#8dd3c7" stroke="transparent" points="537,-10 537,-30 557,-30 557,-10 537,-10"/>
<text text-anchor="start" x="560.73" y="-15.4" font-family="sans-serif" font-size="14.00"> &#160;Module</text>
<polygon fill="#80b1d3" stroke="transparent" points="623,-10 623,-30 643,-30 643,-10 623,-10"/>
<text text-anchor="start" x="646.78" y="-15.4" font-family="sans-serif" font-size="14.00"> &#160;Bootstrap</text>
<polygon fill="#fdb462" stroke="transparent" points="720,-10 720,-30 740,-30 740,-10 720,-10"/>
<text text-anchor="start" x="743.67" y="-15.4" font-family="sans-serif" font-size="14.00"> &#160;Providers</text>
<polygon fill="#fb8072" stroke="transparent" points="816,-10 816,-30 836,-30 836,-10 816,-10"/>
<text text-anchor="start" x="839.73" y="-15.4" font-family="sans-serif" font-size="14.00"> &#160;Exports</text>
<g id="clust1" class="cluster">
<title>cluster_AdminLayoutModule</title>
<polygon fill="none" stroke="black" stroke-dasharray="1,5" points="8,-70 8,-195 1308,-195 1308,-70 8,-70"/>
</g>
<g id="clust2" class="cluster">
<title>cluster_AdminLayoutModule_declarations</title>
<polygon fill="none" stroke="black" points="16,-78 16,-130 1300,-130 1300,-78 16,-78"/>
</g>
<!-- AsignacionComponent -->
<g id="node1" class="node">
<title>AsignacionComponent</title>
<polygon fill="#ffffb3" stroke="black" points="1291.59,-122 1146.41,-122 1146.41,-86 1291.59,-86 1291.59,-122"/>
<text text-anchor="middle" x="1219" y="-99.8" font-family="Times,serif" font-size="14.00">AsignacionComponent</text>
</g>
<!-- AdminLayoutModule -->
<g id="node9" class="node">
<title>AdminLayoutModule</title>
<polygon fill="#8dd3c7" stroke="black" points="694.1,-187 691.1,-191 670.1,-191 667.1,-187 555.9,-187 555.9,-151 694.1,-151 694.1,-187"/>
<text text-anchor="middle" x="625" y="-164.8" font-family="Times,serif" font-size="14.00">AdminLayoutModule</text>
</g>
<!-- AsignacionComponent&#45;&gt;AdminLayoutModule -->
<g id="edge1" class="edge">
<title>AsignacionComponent&#45;&gt;AdminLayoutModule</title>
<path fill="none" stroke="black" d="M1219,-122.29C1219,-144.21 1219,-178 1219,-178 1219,-178 704.3,-178 704.3,-178"/>
<polygon fill="black" stroke="black" points="704.3,-174.5 694.3,-178 704.3,-181.5 704.3,-174.5"/>
</g>
<!-- EstacionesComponent -->
<g id="node2" class="node">
<title>EstacionesComponent</title>
<polygon fill="#ffffb3" stroke="black" points="1128.7,-122 987.3,-122 987.3,-86 1128.7,-86 1128.7,-122"/>
<text text-anchor="middle" x="1058" y="-99.8" font-family="Times,serif" font-size="14.00">EstacionesComponent</text>
</g>
<!-- EstacionesComponent&#45;&gt;AdminLayoutModule -->
<g id="edge2" class="edge">
<title>EstacionesComponent&#45;&gt;AdminLayoutModule</title>
<path fill="none" stroke="black" d="M1058,-122.11C1058,-141.34 1058,-169 1058,-169 1058,-169 704.09,-169 704.09,-169"/>
<polygon fill="black" stroke="black" points="704.09,-165.5 694.09,-169 704.09,-172.5 704.09,-165.5"/>
</g>
<!-- FormEstacionComponent -->
<g id="node3" class="node">
<title>FormEstacionComponent</title>
<polygon fill="#ffffb3" stroke="black" points="968.87,-122 809.13,-122 809.13,-86 968.87,-86 968.87,-122"/>
<text text-anchor="middle" x="889" y="-99.8" font-family="Times,serif" font-size="14.00">FormEstacionComponent</text>
</g>
<!-- FormEstacionComponent&#45;&gt;AdminLayoutModule -->
<g id="edge3" class="edge">
<title>FormEstacionComponent&#45;&gt;AdminLayoutModule</title>
<path fill="none" stroke="black" d="M889,-122.03C889,-138.4 889,-160 889,-160 889,-160 704.36,-160 704.36,-160"/>
<polygon fill="black" stroke="black" points="704.36,-156.5 694.36,-160 704.36,-163.5 704.36,-156.5"/>
</g>
<!-- FormUsuarioComponent -->
<g id="node4" class="node">
<title>FormUsuarioComponent</title>
<polygon fill="#ffffb3" stroke="black" points="790.98,-122 635.02,-122 635.02,-86 790.98,-86 790.98,-122"/>
<text text-anchor="middle" x="713" y="-99.8" font-family="Times,serif" font-size="14.00">FormUsuarioComponent</text>
</g>
<!-- FormUsuarioComponent&#45;&gt;AdminLayoutModule -->
<g id="edge4" class="edge">
<title>FormUsuarioComponent&#45;&gt;AdminLayoutModule</title>
<path fill="none" stroke="black" d="M664.53,-122.11C664.53,-122.11 664.53,-140.99 664.53,-140.99"/>
<polygon fill="black" stroke="black" points="661.03,-140.99 664.53,-150.99 668.03,-140.99 661.03,-140.99"/>
</g>
<!-- FormVariableComponent -->
<g id="node5" class="node">
<title>FormVariableComponent</title>
<polygon fill="#ffffb3" stroke="black" points="616.86,-122 457.14,-122 457.14,-86 616.86,-86 616.86,-122"/>
<text text-anchor="middle" x="537" y="-99.8" font-family="Times,serif" font-size="14.00">FormVariableComponent</text>
</g>
<!-- FormVariableComponent&#45;&gt;AdminLayoutModule -->
<g id="edge5" class="edge">
<title>FormVariableComponent&#45;&gt;AdminLayoutModule</title>
<path fill="none" stroke="black" d="M586.44,-122.11C586.44,-122.11 586.44,-140.99 586.44,-140.99"/>
<polygon fill="black" stroke="black" points="582.94,-140.99 586.44,-150.99 589.94,-140.99 582.94,-140.99"/>
</g>
<!-- RolesComponent -->
<g id="node6" class="node">
<title>RolesComponent</title>
<polygon fill="#ffffb3" stroke="black" points="438.72,-122 325.28,-122 325.28,-86 438.72,-86 438.72,-122"/>
<text text-anchor="middle" x="382" y="-99.8" font-family="Times,serif" font-size="14.00">RolesComponent</text>
</g>
<!-- RolesComponent&#45;&gt;AdminLayoutModule -->
<g id="edge6" class="edge">
<title>RolesComponent&#45;&gt;AdminLayoutModule</title>
<path fill="none" stroke="black" d="M382,-122.03C382,-138.4 382,-160 382,-160 382,-160 545.69,-160 545.69,-160"/>
<polygon fill="black" stroke="black" points="545.69,-163.5 555.69,-160 545.69,-156.5 545.69,-163.5"/>
</g>
<!-- UsuariosComponent -->
<g id="node7" class="node">
<title>UsuariosComponent</title>
<polygon fill="#ffffb3" stroke="black" points="307.59,-122 176.41,-122 176.41,-86 307.59,-86 307.59,-122"/>
<text text-anchor="middle" x="242" y="-99.8" font-family="Times,serif" font-size="14.00">UsuariosComponent</text>
</g>
<!-- UsuariosComponent&#45;&gt;AdminLayoutModule -->
<g id="edge7" class="edge">
<title>UsuariosComponent&#45;&gt;AdminLayoutModule</title>
<path fill="none" stroke="black" d="M242,-122.11C242,-141.34 242,-169 242,-169 242,-169 545.64,-169 545.64,-169"/>
<polygon fill="black" stroke="black" points="545.64,-172.5 555.64,-169 545.64,-165.5 545.64,-172.5"/>
</g>
<!-- VariablesComponent -->
<g id="node8" class="node">
<title>VariablesComponent</title>
<polygon fill="#ffffb3" stroke="black" points="158.47,-122 23.53,-122 23.53,-86 158.47,-86 158.47,-122"/>
<text text-anchor="middle" x="91" y="-99.8" font-family="Times,serif" font-size="14.00">VariablesComponent</text>
</g>
<!-- VariablesComponent&#45;&gt;AdminLayoutModule -->
<g id="edge8" class="edge">
<title>VariablesComponent&#45;&gt;AdminLayoutModule</title>
<path fill="none" stroke="black" d="M91,-122.29C91,-144.21 91,-178 91,-178 91,-178 545.74,-178 545.74,-178"/>
<polygon fill="black" stroke="black" points="545.74,-181.5 555.74,-178 545.74,-174.5 545.74,-181.5"/>
</g>
</g>
</svg>
