<?xml version="1.0" encoding="UTF-8" standalone="no"?>
<!DOCTYPE svg PUBLIC "-//W3C//DTD SVG 1.1//EN"
 "http://www.w3.org/Graphics/SVG/1.1/DTD/svg11.dtd">
<!-- Generated by graphviz version 2.47.0 (20210316.0004)
 -->
<!-- Title: dependencies Pages: 1 -->
<svg width="839pt" height="284pt"
 viewBox="0.00 0.00 839.00 284.00" xmlns="http://www.w3.org/2000/svg" xmlns:xlink="http://www.w3.org/1999/xlink">
<g id="graph0" class="graph" transform="scale(1 1) rotate(0) translate(4 280)">
<title>dependencies</title>
<polygon fill="white" stroke="transparent" points="-4,4 -4,-280 835,-280 835,4 -4,4"/>
<text text-anchor="start" x="394.51" y="-42.4" font-family="sans-serif" font-weight="bold" font-size="14.00">Legend</text>
<polygon fill="#ffffb3" stroke="transparent" points="181.5,-10 181.5,-30 201.5,-30 201.5,-10 181.5,-10"/>
<text text-anchor="start" x="205.13" y="-15.4" font-family="sans-serif" font-size="14.00"> &#160;Declarations</text>
<polygon fill="#8dd3c7" stroke="transparent" points="294.5,-10 294.5,-30 314.5,-30 314.5,-10 294.5,-10"/>
<text text-anchor="start" x="318.23" y="-15.4" font-family="sans-serif" font-size="14.00"> &#160;Module</text>
<polygon fill="#80b1d3" stroke="transparent" points="380.5,-10 380.5,-30 400.5,-30 400.5,-10 380.5,-10"/>
<text text-anchor="start" x="404.28" y="-15.4" font-family="sans-serif" font-size="14.00"> &#160;Bootstrap</text>
<polygon fill="#fdb462" stroke="transparent" points="477.5,-10 477.5,-30 497.5,-30 497.5,-10 477.5,-10"/>
<text text-anchor="start" x="501.17" y="-15.4" font-family="sans-serif" font-size="14.00"> &#160;Providers</text>
<polygon fill="#fb8072" stroke="transparent" points="573.5,-10 573.5,-30 593.5,-30 593.5,-10 573.5,-10"/>
<text text-anchor="start" x="597.23" y="-15.4" font-family="sans-serif" font-size="14.00"> &#160;Exports</text>
<g id="clust1" class="cluster">
<title>cluster_AppModule</title>
<polygon fill="none" stroke="black" stroke-dasharray="1,5" points="8,-70 8,-268 823,-268 823,-70 8,-70"/>
</g>
<g id="clust2" class="cluster">
<title>cluster_AppModule_declarations</title>
<polygon fill="none" stroke="black" points="168,-78 168,-130 815,-130 815,-78 168,-78"/>
</g>
<g id="clust7" class="cluster">
<title>cluster_AppModule_imports</title>
<polygon fill="none" stroke="black" points="16,-78 16,-130 160,-130 160,-78 16,-78"/>
</g>
<g id="clust9" class="cluster">
<title>cluster_AppModule_bootstrap</title>
<polygon fill="none" stroke="black" points="369,-208 369,-260 493,-260 493,-208 369,-208"/>
</g>
<!-- AdminLayoutComponent -->
<g id="node1" class="node">
<title>AdminLayoutComponent</title>
<polygon fill="#ffffb3" stroke="black" points="806.88,-122 647.12,-122 647.12,-86 806.88,-86 806.88,-122"/>
<text text-anchor="middle" x="727" y="-99.8" font-family="Times,serif" font-size="14.00">AdminLayoutComponent</text>
</g>
<!-- AppModule -->
<g id="node5" class="node">
<title>AppModule</title>
<polygon fill="#8dd3c7" stroke="black" points="472.66,-187 469.66,-191 448.66,-191 445.66,-187 389.34,-187 389.34,-151 472.66,-151 472.66,-187"/>
<text text-anchor="middle" x="431" y="-164.8" font-family="Times,serif" font-size="14.00">AppModule</text>
</g>
<!-- AdminLayoutComponent&#45;&gt;AppModule -->
<g id="edge1" class="edge">
<title>AdminLayoutComponent&#45;&gt;AppModule</title>
<path fill="none" stroke="black" d="M727,-122.28C727,-143.32 727,-175 727,-175 727,-175 482.78,-175 482.78,-175"/>
<polygon fill="black" stroke="black" points="482.78,-171.5 472.78,-175 482.78,-178.5 482.78,-171.5"/>
</g>
<!-- AppComponent -->
<g id="node2" class="node">
<title>AppComponent</title>
<polygon fill="#ffffb3" stroke="black" points="628.94,-122 523.06,-122 523.06,-86 628.94,-86 628.94,-122"/>
<text text-anchor="middle" x="576" y="-99.8" font-family="Times,serif" font-size="14.00">AppComponent</text>
</g>
<!-- AppComponent&#45;&gt;AppModule -->
<g id="edge2" class="edge">
<title>AppComponent&#45;&gt;AppModule</title>
<path fill="none" stroke="black" d="M576,-122.02C576,-139.37 576,-163 576,-163 576,-163 482.94,-163 482.94,-163"/>
<polygon fill="black" stroke="black" points="482.94,-159.5 472.94,-163 482.94,-166.5 482.94,-159.5"/>
</g>
<!-- AuthLayoutComponent -->
<g id="node3" class="node">
<title>AuthLayoutComponent</title>
<polygon fill="#ffffb3" stroke="black" points="505.49,-122 356.51,-122 356.51,-86 505.49,-86 505.49,-122"/>
<text text-anchor="middle" x="431" y="-99.8" font-family="Times,serif" font-size="14.00">AuthLayoutComponent</text>
</g>
<!-- AuthLayoutComponent&#45;&gt;AppModule -->
<g id="edge3" class="edge">
<title>AuthLayoutComponent&#45;&gt;AppModule</title>
<path fill="none" stroke="black" d="M431,-122.11C431,-122.11 431,-140.99 431,-140.99"/>
<polygon fill="black" stroke="black" points="427.5,-140.99 431,-150.99 434.5,-140.99 427.5,-140.99"/>
</g>
<!-- ViewerLayoutComponent -->
<g id="node4" class="node">
<title>ViewerLayoutComponent</title>
<polygon fill="#ffffb3" stroke="black" points="338.18,-122 175.82,-122 175.82,-86 338.18,-86 338.18,-122"/>
<text text-anchor="middle" x="257" y="-99.8" font-family="Times,serif" font-size="14.00">ViewerLayoutComponent</text>
</g>
<!-- ViewerLayoutComponent&#45;&gt;AppModule -->
<g id="edge4" class="edge">
<title>ViewerLayoutComponent&#45;&gt;AppModule</title>
<path fill="none" stroke="black" d="M257,-122.02C257,-139.37 257,-163 257,-163 257,-163 379.32,-163 379.32,-163"/>
<polygon fill="black" stroke="black" points="379.32,-166.5 389.32,-163 379.32,-159.5 379.32,-166.5"/>
</g>
<!-- AppComponent  -->
<g id="node7" class="node">
<title>AppComponent </title>
<polygon fill="#80b1d3" stroke="black" points="485.44,-252 376.56,-252 376.56,-216 485.44,-216 485.44,-252"/>
<text text-anchor="middle" x="431" y="-229.8" font-family="Times,serif" font-size="14.00">AppComponent </text>
</g>
<!-- AppModule&#45;&gt;AppComponent  -->
<g id="edge6" class="edge">
<title>AppModule&#45;&gt;AppComponent </title>
<path fill="none" stroke="black" stroke-dasharray="1,5" d="M431,-187.11C431,-187.11 431,-205.99 431,-205.99"/>
<polygon fill="black" stroke="black" points="427.5,-205.99 431,-215.99 434.5,-205.99 427.5,-205.99"/>
</g>
<!-- AppRoutingModule -->
<g id="node6" class="node">
<title>AppRoutingModule</title>
<polygon fill="#8dd3c7" stroke="black" points="152.27,-122 149.27,-126 128.27,-126 125.27,-122 23.73,-122 23.73,-86 152.27,-86 152.27,-122"/>
<text text-anchor="middle" x="88" y="-99.8" font-family="Times,serif" font-size="14.00">AppRoutingModule</text>
</g>
<!-- AppRoutingModule&#45;&gt;AppModule -->
<g id="edge5" class="edge">
<title>AppRoutingModule&#45;&gt;AppModule</title>
<path fill="none" stroke="black" d="M88,-122.28C88,-143.32 88,-175 88,-175 88,-175 379.28,-175 379.28,-175"/>
<polygon fill="black" stroke="black" points="379.28,-178.5 389.28,-175 379.28,-171.5 379.28,-178.5"/>
</g>
</g>
</svg>
