<?xml version="1.0" encoding="UTF-8" standalone="no"?>
<!DOCTYPE svg PUBLIC "-//W3C//DTD SVG 1.1//EN"
 "http://www.w3.org/Graphics/SVG/1.1/DTD/svg11.dtd">
<!-- Generated by graphviz version 2.47.0 (20210316.0004)
 -->
<!-- Title: dependencies Pages: 1 -->
<svg width="654pt" height="284pt"
 viewBox="0.00 0.00 654.00 284.00" xmlns="http://www.w3.org/2000/svg" xmlns:xlink="http://www.w3.org/1999/xlink">
<g id="graph0" class="graph" transform="scale(1 1) rotate(0) translate(4 280)">
<title>dependencies</title>
<polygon fill="white" stroke="transparent" points="-4,4 -4,-280 650,-280 650,4 -4,4"/>
<text text-anchor="start" x="302.01" y="-42.4" font-family="sans-serif" font-weight="bold" font-size="14.00">Legend</text>
<polygon fill="#ffffb3" stroke="transparent" points="89,-10 89,-30 109,-30 109,-10 89,-10"/>
<text text-anchor="start" x="112.63" y="-15.4" font-family="sans-serif" font-size="14.00"> &#160;Declarations</text>
<polygon fill="#8dd3c7" stroke="transparent" points="202,-10 202,-30 222,-30 222,-10 202,-10"/>
<text text-anchor="start" x="225.73" y="-15.4" font-family="sans-serif" font-size="14.00"> &#160;Module</text>
<polygon fill="#80b1d3" stroke="transparent" points="288,-10 288,-30 308,-30 308,-10 288,-10"/>
<text text-anchor="start" x="311.78" y="-15.4" font-family="sans-serif" font-size="14.00"> &#160;Bootstrap</text>
<polygon fill="#fdb462" stroke="transparent" points="385,-10 385,-30 405,-30 405,-10 385,-10"/>
<text text-anchor="start" x="408.67" y="-15.4" font-family="sans-serif" font-size="14.00"> &#160;Providers</text>
<polygon fill="#fb8072" stroke="transparent" points="481,-10 481,-30 501,-30 501,-10 481,-10"/>
<text text-anchor="start" x="504.73" y="-15.4" font-family="sans-serif" font-size="14.00"> &#160;Exports</text>
<g id="clust1" class="cluster">
<title>cluster_ComponentsModule</title>
<polygon fill="none" stroke="black" stroke-dasharray="1,5" points="8,-70 8,-268 638,-268 638,-70 8,-70"/>
</g>
<g id="clust2" class="cluster">
<title>cluster_ComponentsModule_declarations</title>
<polygon fill="none" stroke="black" points="24,-78 24,-130 624,-130 624,-78 24,-78"/>
</g>
<g id="clust8" class="cluster">
<title>cluster_ComponentsModule_exports</title>
<polygon fill="none" stroke="black" points="16,-208 16,-260 630,-260 630,-208 16,-208"/>
</g>
<!-- FooterComponent -->
<g id="node1" class="node">
<title>FooterComponent</title>
<polygon fill="#ffffb3" stroke="black" points="615.88,-122 498.12,-122 498.12,-86 615.88,-86 615.88,-122"/>
<text text-anchor="middle" x="557" y="-99.8" font-family="Times,serif" font-size="14.00">FooterComponent</text>
</g>
<!-- ComponentsModule -->
<g id="node5" class="node">
<title>ComponentsModule</title>
<polygon fill="#8dd3c7" stroke="black" points="345.33,-187 342.33,-191 321.33,-191 318.33,-187 214.67,-187 214.67,-151 345.33,-151 345.33,-187"/>
<text text-anchor="middle" x="280" y="-164.8" font-family="Times,serif" font-size="14.00">ComponentsModule</text>
</g>
<!-- FooterComponent&#45;&gt;ComponentsModule -->
<g id="edge1" class="edge">
<title>FooterComponent&#45;&gt;ComponentsModule</title>
<path fill="none" stroke="black" d="M577.4,-122.11C577.4,-141.34 577.4,-169 577.4,-169 577.4,-169 355.26,-169 355.26,-169"/>
<polygon fill="black" stroke="black" points="355.27,-165.5 345.26,-169 355.26,-172.5 355.27,-165.5"/>
</g>
<!-- NavbarComponent -->
<g id="node2" class="node">
<title>NavbarComponent</title>
<polygon fill="#ffffb3" stroke="black" points="480.03,-122 357.97,-122 357.97,-86 480.03,-86 480.03,-122"/>
<text text-anchor="middle" x="419" y="-99.8" font-family="Times,serif" font-size="14.00">NavbarComponent</text>
</g>
<!-- NavbarComponent&#45;&gt;ComponentsModule -->
<g id="edge2" class="edge">
<title>NavbarComponent&#45;&gt;ComponentsModule</title>
<path fill="none" stroke="black" d="M419,-122.03C419,-138.4 419,-160 419,-160 419,-160 355.43,-160 355.43,-160"/>
<polygon fill="black" stroke="black" points="355.43,-156.5 345.43,-160 355.43,-163.5 355.43,-156.5"/>
</g>
<!-- SidebarComponent -->
<g id="node3" class="node">
<title>SidebarComponent</title>
<polygon fill="#ffffb3" stroke="black" points="340.1,-122 215.9,-122 215.9,-86 340.1,-86 340.1,-122"/>
<text text-anchor="middle" x="278" y="-99.8" font-family="Times,serif" font-size="14.00">SidebarComponent</text>
</g>
<!-- SidebarComponent&#45;&gt;ComponentsModule -->
<g id="edge3" class="edge">
<title>SidebarComponent&#45;&gt;ComponentsModule</title>
<path fill="none" stroke="black" d="M278,-122.11C278,-122.11 278,-140.99 278,-140.99"/>
<polygon fill="black" stroke="black" points="274.5,-140.99 278,-150.99 281.5,-140.99 274.5,-140.99"/>
</g>
<!-- SidebarViewerComponent -->
<g id="node4" class="node">
<title>SidebarViewerComponent</title>
<polygon fill="#ffffb3" stroke="black" points="197.79,-122 32.21,-122 32.21,-86 197.79,-86 197.79,-122"/>
<text text-anchor="middle" x="115" y="-99.8" font-family="Times,serif" font-size="14.00">SidebarViewerComponent</text>
</g>
<!-- SidebarViewerComponent&#45;&gt;ComponentsModule -->
<g id="edge4" class="edge">
<title>SidebarViewerComponent&#45;&gt;ComponentsModule</title>
<path fill="none" stroke="black" d="M139.05,-122.02C139.05,-139.37 139.05,-163 139.05,-163 139.05,-163 204.48,-163 204.48,-163"/>
<polygon fill="black" stroke="black" points="204.48,-166.5 214.48,-163 204.48,-159.5 204.48,-166.5"/>
</g>
<!-- FooterComponent  -->
<g id="node6" class="node">
<title>FooterComponent </title>
<polygon fill="#fb8072" stroke="black" points="621.88,-252 500.12,-252 500.12,-216 621.88,-216 621.88,-252"/>
<text text-anchor="middle" x="561" y="-229.8" font-family="Times,serif" font-size="14.00">FooterComponent </text>
</g>
<!-- ComponentsModule&#45;&gt;FooterComponent  -->
<g id="edge5" class="edge">
<title>ComponentsModule&#45;&gt;FooterComponent </title>
<path fill="none" stroke="black" stroke-dasharray="5,2" d="M345.32,-178C422,-178 538.85,-178 538.85,-178 538.85,-178 538.85,-205.97 538.85,-205.97"/>
<polygon fill="black" stroke="black" points="535.35,-205.97 538.85,-215.97 542.35,-205.97 535.35,-205.97"/>
</g>
<!-- NavbarComponent  -->
<g id="node7" class="node">
<title>NavbarComponent </title>
<polygon fill="#fb8072" stroke="black" points="482.03,-252 355.97,-252 355.97,-216 482.03,-216 482.03,-252"/>
<text text-anchor="middle" x="419" y="-229.8" font-family="Times,serif" font-size="14.00">NavbarComponent </text>
</g>
<!-- ComponentsModule&#45;&gt;NavbarComponent  -->
<g id="edge6" class="edge">
<title>ComponentsModule&#45;&gt;NavbarComponent </title>
<path fill="none" stroke="black" stroke-dasharray="5,2" d="M341.48,-187.11C341.48,-206.34 341.48,-234 341.48,-234 341.48,-234 345.7,-234 345.7,-234"/>
<polygon fill="black" stroke="black" points="345.7,-237.5 355.7,-234 345.7,-230.5 345.7,-237.5"/>
</g>
<!-- SidebarComponent  -->
<g id="node8" class="node">
<title>SidebarComponent </title>
<polygon fill="#fb8072" stroke="black" points="337.6,-252 210.4,-252 210.4,-216 337.6,-216 337.6,-252"/>
<text text-anchor="middle" x="274" y="-229.8" font-family="Times,serif" font-size="14.00">SidebarComponent </text>
</g>
<!-- ComponentsModule&#45;&gt;SidebarComponent  -->
<g id="edge7" class="edge">
<title>ComponentsModule&#45;&gt;SidebarComponent </title>
<path fill="none" stroke="black" stroke-dasharray="5,2" d="M276.32,-187.11C276.32,-187.11 276.32,-205.99 276.32,-205.99"/>
<polygon fill="black" stroke="black" points="272.82,-205.99 276.32,-215.99 279.82,-205.99 272.82,-205.99"/>
</g>
<!-- SidebarViewerComponent  -->
<g id="node9" class="node">
<title>SidebarViewerComponent </title>
<polygon fill="#fb8072" stroke="black" points="192.29,-252 23.71,-252 23.71,-216 192.29,-216 192.29,-252"/>
<text text-anchor="middle" x="108" y="-229.8" font-family="Times,serif" font-size="14.00">SidebarViewerComponent </text>
</g>
<!-- ComponentsModule&#45;&gt;SidebarViewerComponent  -->
<g id="edge8" class="edge">
<title>ComponentsModule&#45;&gt;SidebarViewerComponent </title>
<path fill="none" stroke="black" stroke-dasharray="5,2" d="M214.76,-175C158.32,-175 85.7,-175 85.7,-175 85.7,-175 85.7,-205.98 85.7,-205.98"/>
<polygon fill="black" stroke="black" points="82.2,-205.98 85.7,-215.98 89.2,-205.98 82.2,-205.98"/>
</g>
</g>
</svg>
