<?xml version="1.0" encoding="UTF-8" standalone="no"?>
<!DOCTYPE svg PUBLIC "-//W3C//DTD SVG 1.1//EN"
 "http://www.w3.org/Graphics/SVG/1.1/DTD/svg11.dtd">
<!-- Generated by graphviz version 2.47.0 (20210316.0004)
 -->
<!-- Title: dependencies Pages: 1 -->
<svg width="3259pt" height="284pt"
 viewBox="0.00 0.00 3259.00 284.00" xmlns="http://www.w3.org/2000/svg" xmlns:xlink="http://www.w3.org/1999/xlink">
<g id="graph0" class="graph" transform="scale(1 1) rotate(0) translate(4 280)">
<title>dependencies</title>
<polygon fill="white" stroke="transparent" points="-4,4 -4,-280 3255,-280 3255,4 -4,4"/>
<text text-anchor="start" x="1604.51" y="-42.4" font-family="sans-serif" font-weight="bold" font-size="14.00">Legend</text>
<polygon fill="#ffffb3" stroke="transparent" points="1391.5,-10 1391.5,-30 1411.5,-30 1411.5,-10 1391.5,-10"/>
<text text-anchor="start" x="1415.13" y="-15.4" font-family="sans-serif" font-size="14.00"> &#160;Declarations</text>
<polygon fill="#8dd3c7" stroke="transparent" points="1504.5,-10 1504.5,-30 1524.5,-30 1524.5,-10 1504.5,-10"/>
<text text-anchor="start" x="1528.23" y="-15.4" font-family="sans-serif" font-size="14.00"> &#160;Module</text>
<polygon fill="#80b1d3" stroke="transparent" points="1590.5,-10 1590.5,-30 1610.5,-30 1610.5,-10 1590.5,-10"/>
<text text-anchor="start" x="1614.28" y="-15.4" font-family="sans-serif" font-size="14.00"> &#160;Bootstrap</text>
<polygon fill="#fdb462" stroke="transparent" points="1687.5,-10 1687.5,-30 1707.5,-30 1707.5,-10 1687.5,-10"/>
<text text-anchor="start" x="1711.17" y="-15.4" font-family="sans-serif" font-size="14.00"> &#160;Providers</text>
<polygon fill="#fb8072" stroke="transparent" points="1783.5,-10 1783.5,-30 1803.5,-30 1803.5,-10 1783.5,-10"/>
<text text-anchor="start" x="1807.23" y="-15.4" font-family="sans-serif" font-size="14.00"> &#160;Exports</text>
<g id="clust1" class="cluster">
<title>cluster_AdminLayoutModule</title>
<polygon fill="none" stroke="black" stroke-dasharray="1,5" points="8,-70 8,-195 1308,-195 1308,-70 8,-70"/>
</g>
<g id="clust2" class="cluster">
<title>cluster_AdminLayoutModule_declarations</title>
<polygon fill="none" stroke="black" points="16,-78 16,-130 1300,-130 1300,-78 16,-78"/>
</g>
<g id="clust39" class="cluster">
<title>cluster_ComponentsModule</title>
<polygon fill="none" stroke="black" stroke-dasharray="1,5" points="2439,-70 2439,-268 3069,-268 3069,-70 2439,-70"/>
</g>
<g id="clust40" class="cluster">
<title>cluster_ComponentsModule_declarations</title>
<polygon fill="none" stroke="black" points="2455,-78 2455,-130 3055,-130 3055,-78 2455,-78"/>
</g>
<g id="clust46" class="cluster">
<title>cluster_ComponentsModule_exports</title>
<polygon fill="none" stroke="black" points="2447,-208 2447,-260 3061,-260 3061,-208 2447,-208"/>
</g>
<g id="clust31" class="cluster">
<title>cluster_AuthLayoutModule</title>
<polygon fill="none" stroke="black" stroke-dasharray="1,5" points="2139,-70 2139,-195 2431,-195 2431,-70 2139,-70"/>
</g>
<g id="clust32" class="cluster">
<title>cluster_AuthLayoutModule_declarations</title>
<polygon fill="none" stroke="black" points="2147,-78 2147,-130 2423,-130 2423,-78 2147,-78"/>
</g>
<g id="clust15" class="cluster">
<title>cluster_AppModule</title>
<polygon fill="none" stroke="black" stroke-dasharray="1,5" points="1316,-70 1316,-268 2131,-268 2131,-70 1316,-70"/>
</g>
<g id="clust16" class="cluster">
<title>cluster_AppModule_declarations</title>
<polygon fill="none" stroke="black" points="1476,-78 1476,-130 2123,-130 2123,-78 1476,-78"/>
</g>
<g id="clust23" class="cluster">
<title>cluster_AppModule_bootstrap</title>
<polygon fill="none" stroke="black" points="1677,-208 1677,-260 1801,-260 1801,-208 1677,-208"/>
</g>
<g id="clust21" class="cluster">
<title>cluster_AppModule_imports</title>
<polygon fill="none" stroke="black" points="1324,-78 1324,-130 1468,-130 1468,-78 1324,-78"/>
</g>
<g id="clust49" class="cluster">
<title>cluster_ViewerLayoutModule</title>
<polygon fill="none" stroke="black" stroke-dasharray="1,5" points="3077,-70 3077,-195 3243,-195 3243,-70 3077,-70"/>
</g>
<g id="clust50" class="cluster">
<title>cluster_ViewerLayoutModule_declarations</title>
<polygon fill="none" stroke="black" points="3085,-78 3085,-130 3235,-130 3235,-78 3085,-78"/>
</g>
<!-- AsignacionComponent -->
<g id="node1" class="node">
<title>AsignacionComponent</title>
<polygon fill="#ffffb3" stroke="black" points="1291.59,-122 1146.41,-122 1146.41,-86 1291.59,-86 1291.59,-122"/>
<text text-anchor="middle" x="1219" y="-99.8" font-family="Times,serif" font-size="14.00">AsignacionComponent</text>
</g>
<!-- AdminLayoutModule -->
<g id="node9" class="node">
<title>AdminLayoutModule</title>
<polygon fill="#8dd3c7" stroke="black" points="694.1,-187 691.1,-191 670.1,-191 667.1,-187 555.9,-187 555.9,-151 694.1,-151 694.1,-187"/>
<text text-anchor="middle" x="625" y="-164.8" font-family="Times,serif" font-size="14.00">AdminLayoutModule</text>
</g>
<!-- AsignacionComponent&#45;&gt;AdminLayoutModule -->
<g id="edge1" class="edge">
<title>AsignacionComponent&#45;&gt;AdminLayoutModule</title>
<path fill="none" stroke="black" d="M1219,-122.11C1219,-141.34 1219,-169 1219,-169 1219,-169 704.3,-169 704.3,-169"/>
<polygon fill="black" stroke="black" points="704.3,-165.5 694.3,-169 704.3,-172.5 704.3,-165.5"/>
</g>
<!-- EstacionesComponent -->
<g id="node2" class="node">
<title>EstacionesComponent</title>
<polygon fill="#ffffb3" stroke="black" points="1128.7,-122 987.3,-122 987.3,-86 1128.7,-86 1128.7,-122"/>
<text text-anchor="middle" x="1058" y="-99.8" font-family="Times,serif" font-size="14.00">EstacionesComponent</text>
</g>
<!-- EstacionesComponent&#45;&gt;AdminLayoutModule -->
<g id="edge2" class="edge">
<title>EstacionesComponent&#45;&gt;AdminLayoutModule</title>
<path fill="none" stroke="black" d="M1058,-122.02C1058,-139.37 1058,-163 1058,-163 1058,-163 704.09,-163 704.09,-163"/>
<polygon fill="black" stroke="black" points="704.09,-159.5 694.09,-163 704.09,-166.5 704.09,-159.5"/>
</g>
<!-- FormEstacionComponent -->
<g id="node3" class="node">
<title>FormEstacionComponent</title>
<polygon fill="#ffffb3" stroke="black" points="968.87,-122 809.13,-122 809.13,-86 968.87,-86 968.87,-122"/>
<text text-anchor="middle" x="889" y="-99.8" font-family="Times,serif" font-size="14.00">FormEstacionComponent</text>
</g>
<!-- FormEstacionComponent&#45;&gt;AdminLayoutModule -->
<g id="edge3" class="edge">
<title>FormEstacionComponent&#45;&gt;AdminLayoutModule</title>
<path fill="none" stroke="black" d="M889,-122.24C889,-137.57 889,-157 889,-157 889,-157 704.36,-157 704.36,-157"/>
<polygon fill="black" stroke="black" points="704.36,-153.5 694.36,-157 704.36,-160.5 704.36,-153.5"/>
</g>
<!-- FormUsuarioComponent -->
<g id="node4" class="node">
<title>FormUsuarioComponent</title>
<polygon fill="#ffffb3" stroke="black" points="790.98,-122 635.02,-122 635.02,-86 790.98,-86 790.98,-122"/>
<text text-anchor="middle" x="713" y="-99.8" font-family="Times,serif" font-size="14.00">FormUsuarioComponent</text>
</g>
<!-- FormUsuarioComponent&#45;&gt;AdminLayoutModule -->
<g id="edge4" class="edge">
<title>FormUsuarioComponent&#45;&gt;AdminLayoutModule</title>
<path fill="none" stroke="black" d="M664.53,-122.11C664.53,-122.11 664.53,-140.99 664.53,-140.99"/>
<polygon fill="black" stroke="black" points="661.03,-140.99 664.53,-150.99 668.03,-140.99 661.03,-140.99"/>
</g>
<!-- FormVariableComponent -->
<g id="node5" class="node">
<title>FormVariableComponent</title>
<polygon fill="#ffffb3" stroke="black" points="616.86,-122 457.14,-122 457.14,-86 616.86,-86 616.86,-122"/>
<text text-anchor="middle" x="537" y="-99.8" font-family="Times,serif" font-size="14.00">FormVariableComponent</text>
</g>
<!-- FormVariableComponent&#45;&gt;AdminLayoutModule -->
<g id="edge5" class="edge">
<title>FormVariableComponent&#45;&gt;AdminLayoutModule</title>
<path fill="none" stroke="black" d="M586.44,-122.11C586.44,-122.11 586.44,-140.99 586.44,-140.99"/>
<polygon fill="black" stroke="black" points="582.94,-140.99 586.44,-150.99 589.94,-140.99 582.94,-140.99"/>
</g>
<!-- RolesComponent -->
<g id="node6" class="node">
<title>RolesComponent</title>
<polygon fill="#ffffb3" stroke="black" points="438.72,-122 325.28,-122 325.28,-86 438.72,-86 438.72,-122"/>
<text text-anchor="middle" x="382" y="-99.8" font-family="Times,serif" font-size="14.00">RolesComponent</text>
</g>
<!-- RolesComponent&#45;&gt;AdminLayoutModule -->
<g id="edge6" class="edge">
<title>RolesComponent&#45;&gt;AdminLayoutModule</title>
<path fill="none" stroke="black" d="M382,-122.03C382,-138.4 382,-160 382,-160 382,-160 545.69,-160 545.69,-160"/>
<polygon fill="black" stroke="black" points="545.69,-163.5 555.69,-160 545.69,-156.5 545.69,-163.5"/>
</g>
<!-- UsuariosComponent -->
<g id="node7" class="node">
<title>UsuariosComponent</title>
<polygon fill="#ffffb3" stroke="black" points="307.59,-122 176.41,-122 176.41,-86 307.59,-86 307.59,-122"/>
<text text-anchor="middle" x="242" y="-99.8" font-family="Times,serif" font-size="14.00">UsuariosComponent</text>
</g>
<!-- UsuariosComponent&#45;&gt;AdminLayoutModule -->
<g id="edge7" class="edge">
<title>UsuariosComponent&#45;&gt;AdminLayoutModule</title>
<path fill="none" stroke="black" d="M242,-122.11C242,-141.34 242,-169 242,-169 242,-169 545.64,-169 545.64,-169"/>
<polygon fill="black" stroke="black" points="545.64,-172.5 555.64,-169 545.64,-165.5 545.64,-172.5"/>
</g>
<!-- VariablesComponent -->
<g id="node8" class="node">
<title>VariablesComponent</title>
<polygon fill="#ffffb3" stroke="black" points="158.47,-122 23.53,-122 23.53,-86 158.47,-86 158.47,-122"/>
<text text-anchor="middle" x="91" y="-99.8" font-family="Times,serif" font-size="14.00">VariablesComponent</text>
</g>
<!-- VariablesComponent&#45;&gt;AdminLayoutModule -->
<g id="edge8" class="edge">
<title>VariablesComponent&#45;&gt;AdminLayoutModule</title>
<path fill="none" stroke="black" d="M91,-122.29C91,-144.21 91,-178 91,-178 91,-178 545.74,-178 545.74,-178"/>
<polygon fill="black" stroke="black" points="545.74,-181.5 555.74,-178 545.74,-174.5 545.74,-181.5"/>
</g>
<!-- AdminLayoutComponent -->
<g id="node10" class="node">
<title>AdminLayoutComponent</title>
<polygon fill="#ffffb3" stroke="black" points="2114.88,-122 1955.12,-122 1955.12,-86 2114.88,-86 2114.88,-122"/>
<text text-anchor="middle" x="2035" y="-99.8" font-family="Times,serif" font-size="14.00">AdminLayoutComponent</text>
</g>
<!-- AppModule -->
<g id="node14" class="node">
<title>AppModule</title>
<polygon fill="#8dd3c7" stroke="black" points="1780.66,-187 1777.66,-191 1756.66,-191 1753.66,-187 1697.34,-187 1697.34,-151 1780.66,-151 1780.66,-187"/>
<text text-anchor="middle" x="1739" y="-164.8" font-family="Times,serif" font-size="14.00">AppModule</text>
</g>
<!-- AdminLayoutComponent&#45;&gt;AppModule -->
<g id="edge9" class="edge">
<title>AdminLayoutComponent&#45;&gt;AppModule</title>
<path fill="none" stroke="black" d="M2035,-122.28C2035,-143.32 2035,-175 2035,-175 2035,-175 1790.78,-175 1790.78,-175"/>
<polygon fill="black" stroke="black" points="1790.78,-171.5 1780.78,-175 1790.78,-178.5 1790.78,-171.5"/>
</g>
<!-- AppComponent -->
<g id="node11" class="node">
<title>AppComponent</title>
<polygon fill="#ffffb3" stroke="black" points="1936.94,-122 1831.06,-122 1831.06,-86 1936.94,-86 1936.94,-122"/>
<text text-anchor="middle" x="1884" y="-99.8" font-family="Times,serif" font-size="14.00">AppComponent</text>
</g>
<!-- AppComponent&#45;&gt;AppModule -->
<g id="edge10" class="edge">
<title>AppComponent&#45;&gt;AppModule</title>
<path fill="none" stroke="black" d="M1884,-122.02C1884,-139.37 1884,-163 1884,-163 1884,-163 1790.94,-163 1790.94,-163"/>
<polygon fill="black" stroke="black" points="1790.94,-159.5 1780.94,-163 1790.94,-166.5 1790.94,-159.5"/>
</g>
<!-- AuthLayoutComponent -->
<g id="node12" class="node">
<title>AuthLayoutComponent</title>
<polygon fill="#ffffb3" stroke="black" points="1813.49,-122 1664.51,-122 1664.51,-86 1813.49,-86 1813.49,-122"/>
<text text-anchor="middle" x="1739" y="-99.8" font-family="Times,serif" font-size="14.00">AuthLayoutComponent</text>
</g>
<!-- AuthLayoutComponent&#45;&gt;AppModule -->
<g id="edge11" class="edge">
<title>AuthLayoutComponent&#45;&gt;AppModule</title>
<path fill="none" stroke="black" d="M1739,-122.11C1739,-122.11 1739,-140.99 1739,-140.99"/>
<polygon fill="black" stroke="black" points="1735.5,-140.99 1739,-150.99 1742.5,-140.99 1735.5,-140.99"/>
</g>
<!-- ViewerLayoutComponent -->
<g id="node13" class="node">
<title>ViewerLayoutComponent</title>
<polygon fill="#ffffb3" stroke="black" points="1646.18,-122 1483.82,-122 1483.82,-86 1646.18,-86 1646.18,-122"/>
<text text-anchor="middle" x="1565" y="-99.8" font-family="Times,serif" font-size="14.00">ViewerLayoutComponent</text>
</g>
<!-- ViewerLayoutComponent&#45;&gt;AppModule -->
<g id="edge12" class="edge">
<title>ViewerLayoutComponent&#45;&gt;AppModule</title>
<path fill="none" stroke="black" d="M1565,-122.28C1565,-143.32 1565,-175 1565,-175 1565,-175 1687.32,-175 1687.32,-175"/>
<polygon fill="black" stroke="black" points="1687.32,-178.5 1697.32,-175 1687.32,-171.5 1687.32,-178.5"/>
</g>
<!-- AppComponent  -->
<g id="node16" class="node">
<title>AppComponent </title>
<polygon fill="#80b1d3" stroke="black" points="1793.44,-252 1684.56,-252 1684.56,-216 1793.44,-216 1793.44,-252"/>
<text text-anchor="middle" x="1739" y="-229.8" font-family="Times,serif" font-size="14.00">AppComponent </text>
</g>
<!-- AppModule&#45;&gt;AppComponent  -->
<g id="edge14" class="edge">
<title>AppModule&#45;&gt;AppComponent </title>
<path fill="none" stroke="black" stroke-dasharray="1,5" d="M1739,-187.11C1739,-187.11 1739,-205.99 1739,-205.99"/>
<polygon fill="black" stroke="black" points="1735.5,-205.99 1739,-215.99 1742.5,-205.99 1735.5,-205.99"/>
</g>
<!-- AppRoutingModule -->
<g id="node15" class="node">
<title>AppRoutingModule</title>
<polygon fill="#8dd3c7" stroke="black" points="1460.27,-122 1457.27,-126 1436.27,-126 1433.27,-122 1331.73,-122 1331.73,-86 1460.27,-86 1460.27,-122"/>
<text text-anchor="middle" x="1396" y="-99.8" font-family="Times,serif" font-size="14.00">AppRoutingModule</text>
</g>
<!-- AppRoutingModule&#45;&gt;AppModule -->
<g id="edge13" class="edge">
<title>AppRoutingModule&#45;&gt;AppModule</title>
<path fill="none" stroke="black" d="M1396,-122.25C1396,-145.02 1396,-181 1396,-181 1396,-181 1687.28,-181 1687.28,-181"/>
<polygon fill="black" stroke="black" points="1687.28,-184.5 1697.28,-181 1687.28,-177.5 1687.28,-184.5"/>
</g>
<!-- LoginComponent -->
<g id="node17" class="node">
<title>LoginComponent</title>
<polygon fill="#ffffb3" stroke="black" points="2415.28,-122 2300.72,-122 2300.72,-86 2415.28,-86 2415.28,-122"/>
<text text-anchor="middle" x="2358" y="-99.8" font-family="Times,serif" font-size="14.00">LoginComponent</text>
</g>
<!-- AuthLayoutModule -->
<g id="node19" class="node">
<title>AuthLayoutModule</title>
<polygon fill="#8dd3c7" stroke="black" points="2351.7,-187 2348.7,-191 2327.7,-191 2324.7,-187 2224.3,-187 2224.3,-151 2351.7,-151 2351.7,-187"/>
<text text-anchor="middle" x="2288" y="-164.8" font-family="Times,serif" font-size="14.00">AuthLayoutModule</text>
</g>
<!-- LoginComponent&#45;&gt;AuthLayoutModule -->
<g id="edge15" class="edge">
<title>LoginComponent&#45;&gt;AuthLayoutModule</title>
<path fill="none" stroke="black" d="M2326.11,-122.11C2326.11,-122.11 2326.11,-140.99 2326.11,-140.99"/>
<polygon fill="black" stroke="black" points="2322.61,-140.99 2326.11,-150.99 2329.61,-140.99 2322.61,-140.99"/>
</g>
<!-- RegisterComponent -->
<g id="node18" class="node">
<title>RegisterComponent</title>
<polygon fill="#ffffb3" stroke="black" points="2282.98,-122 2155.02,-122 2155.02,-86 2282.98,-86 2282.98,-122"/>
<text text-anchor="middle" x="2219" y="-99.8" font-family="Times,serif" font-size="14.00">RegisterComponent</text>
</g>
<!-- RegisterComponent&#45;&gt;AuthLayoutModule -->
<g id="edge16" class="edge">
<title>RegisterComponent&#45;&gt;AuthLayoutModule</title>
<path fill="none" stroke="black" d="M2253.69,-122.11C2253.69,-122.11 2253.69,-140.99 2253.69,-140.99"/>
<polygon fill="black" stroke="black" points="2250.2,-140.99 2253.69,-150.99 2257.2,-140.99 2250.2,-140.99"/>
</g>
<!-- FooterComponent -->
<g id="node20" class="node">
<title>FooterComponent</title>
<polygon fill="#ffffb3" stroke="black" points="3046.88,-122 2929.12,-122 2929.12,-86 3046.88,-86 3046.88,-122"/>
<text text-anchor="middle" x="2988" y="-99.8" font-family="Times,serif" font-size="14.00">FooterComponent</text>
</g>
<!-- ComponentsModule -->
<g id="node24" class="node">
<title>ComponentsModule</title>
<polygon fill="#8dd3c7" stroke="black" points="2776.33,-187 2773.33,-191 2752.33,-191 2749.33,-187 2645.67,-187 2645.67,-151 2776.33,-151 2776.33,-187"/>
<text text-anchor="middle" x="2711" y="-164.8" font-family="Times,serif" font-size="14.00">ComponentsModule</text>
</g>
<!-- FooterComponent&#45;&gt;ComponentsModule -->
<g id="edge17" class="edge">
<title>FooterComponent&#45;&gt;ComponentsModule</title>
<path fill="none" stroke="black" d="M3008.4,-122.11C3008.4,-141.34 3008.4,-169 3008.4,-169 3008.4,-169 2786.26,-169 2786.26,-169"/>
<polygon fill="black" stroke="black" points="2786.27,-165.5 2776.26,-169 2786.26,-172.5 2786.27,-165.5"/>
</g>
<!-- NavbarComponent -->
<g id="node21" class="node">
<title>NavbarComponent</title>
<polygon fill="#ffffb3" stroke="black" points="2911.03,-122 2788.97,-122 2788.97,-86 2911.03,-86 2911.03,-122"/>
<text text-anchor="middle" x="2850" y="-99.8" font-family="Times,serif" font-size="14.00">NavbarComponent</text>
</g>
<!-- NavbarComponent&#45;&gt;ComponentsModule -->
<g id="edge18" class="edge">
<title>NavbarComponent&#45;&gt;ComponentsModule</title>
<path fill="none" stroke="black" d="M2850,-122.03C2850,-138.4 2850,-160 2850,-160 2850,-160 2786.43,-160 2786.43,-160"/>
<polygon fill="black" stroke="black" points="2786.43,-156.5 2776.43,-160 2786.43,-163.5 2786.43,-156.5"/>
</g>
<!-- SidebarComponent -->
<g id="node22" class="node">
<title>SidebarComponent</title>
<polygon fill="#ffffb3" stroke="black" points="2771.1,-122 2646.9,-122 2646.9,-86 2771.1,-86 2771.1,-122"/>
<text text-anchor="middle" x="2709" y="-99.8" font-family="Times,serif" font-size="14.00">SidebarComponent</text>
</g>
<!-- SidebarComponent&#45;&gt;ComponentsModule -->
<g id="edge19" class="edge">
<title>SidebarComponent&#45;&gt;ComponentsModule</title>
<path fill="none" stroke="black" d="M2709,-122.11C2709,-122.11 2709,-140.99 2709,-140.99"/>
<polygon fill="black" stroke="black" points="2705.5,-140.99 2709,-150.99 2712.5,-140.99 2705.5,-140.99"/>
</g>
<!-- SidebarViewerComponent -->
<g id="node23" class="node">
<title>SidebarViewerComponent</title>
<polygon fill="#ffffb3" stroke="black" points="2628.79,-122 2463.21,-122 2463.21,-86 2628.79,-86 2628.79,-122"/>
<text text-anchor="middle" x="2546" y="-99.8" font-family="Times,serif" font-size="14.00">SidebarViewerComponent</text>
</g>
<!-- SidebarViewerComponent&#45;&gt;ComponentsModule -->
<g id="edge20" class="edge">
<title>SidebarViewerComponent&#45;&gt;ComponentsModule</title>
<path fill="none" stroke="black" d="M2570.05,-122.02C2570.05,-139.37 2570.05,-163 2570.05,-163 2570.05,-163 2635.48,-163 2635.48,-163"/>
<polygon fill="black" stroke="black" points="2635.48,-166.5 2645.48,-163 2635.48,-159.5 2635.48,-166.5"/>
</g>
<!-- FooterComponent  -->
<g id="node25" class="node">
<title>FooterComponent </title>
<polygon fill="#fb8072" stroke="black" points="3052.88,-252 2931.12,-252 2931.12,-216 3052.88,-216 3052.88,-252"/>
<text text-anchor="middle" x="2992" y="-229.8" font-family="Times,serif" font-size="14.00">FooterComponent </text>
</g>
<!-- ComponentsModule&#45;&gt;FooterComponent  -->
<g id="edge21" class="edge">
<title>ComponentsModule&#45;&gt;FooterComponent </title>
<path fill="none" stroke="black" stroke-dasharray="5,2" d="M2776.32,-178C2853,-178 2969.85,-178 2969.85,-178 2969.85,-178 2969.85,-205.97 2969.85,-205.97"/>
<polygon fill="black" stroke="black" points="2966.35,-205.97 2969.85,-215.97 2973.35,-205.97 2966.35,-205.97"/>
</g>
<!-- NavbarComponent  -->
<g id="node26" class="node">
<title>NavbarComponent </title>
<polygon fill="#fb8072" stroke="black" points="2913.03,-252 2786.97,-252 2786.97,-216 2913.03,-216 2913.03,-252"/>
<text text-anchor="middle" x="2850" y="-229.8" font-family="Times,serif" font-size="14.00">NavbarComponent </text>
</g>
<!-- ComponentsModule&#45;&gt;NavbarComponent  -->
<g id="edge22" class="edge">
<title>ComponentsModule&#45;&gt;NavbarComponent </title>
<path fill="none" stroke="black" stroke-dasharray="5,2" d="M2772.48,-187.11C2772.48,-206.34 2772.48,-234 2772.48,-234 2772.48,-234 2776.7,-234 2776.7,-234"/>
<polygon fill="black" stroke="black" points="2776.7,-237.5 2786.7,-234 2776.7,-230.5 2776.7,-237.5"/>
</g>
<!-- SidebarComponent  -->
<g id="node27" class="node">
<title>SidebarComponent </title>
<polygon fill="#fb8072" stroke="black" points="2768.6,-252 2641.4,-252 2641.4,-216 2768.6,-216 2768.6,-252"/>
<text text-anchor="middle" x="2705" y="-229.8" font-family="Times,serif" font-size="14.00">SidebarComponent </text>
</g>
<!-- ComponentsModule&#45;&gt;SidebarComponent  -->
<g id="edge23" class="edge">
<title>ComponentsModule&#45;&gt;SidebarComponent </title>
<path fill="none" stroke="black" stroke-dasharray="5,2" d="M2707.32,-187.11C2707.32,-187.11 2707.32,-205.99 2707.32,-205.99"/>
<polygon fill="black" stroke="black" points="2703.82,-205.99 2707.32,-215.99 2710.82,-205.99 2703.82,-205.99"/>
</g>
<!-- SidebarViewerComponent  -->
<g id="node28" class="node">
<title>SidebarViewerComponent </title>
<polygon fill="#fb8072" stroke="black" points="2623.29,-252 2454.71,-252 2454.71,-216 2623.29,-216 2623.29,-252"/>
<text text-anchor="middle" x="2539" y="-229.8" font-family="Times,serif" font-size="14.00">SidebarViewerComponent </text>
</g>
<!-- ComponentsModule&#45;&gt;SidebarViewerComponent  -->
<g id="edge24" class="edge">
<title>ComponentsModule&#45;&gt;SidebarViewerComponent </title>
<path fill="none" stroke="black" stroke-dasharray="5,2" d="M2645.76,-175C2589.32,-175 2516.7,-175 2516.7,-175 2516.7,-175 2516.7,-205.98 2516.7,-205.98"/>
<polygon fill="black" stroke="black" points="2513.2,-205.98 2516.7,-215.98 2520.2,-205.98 2513.2,-205.98"/>
</g>
<!-- RegistrosComponent -->
<g id="node29" class="node">
<title>RegistrosComponent</title>
<polygon fill="#ffffb3" stroke="black" points="3227.21,-122 3092.79,-122 3092.79,-86 3227.21,-86 3227.21,-122"/>
<text text-anchor="middle" x="3160" y="-99.8" font-family="Times,serif" font-size="14.00">RegistrosComponent</text>
</g>
<!-- ViewerLayoutModule -->
<g id="node30" class="node">
<title>ViewerLayoutModule</title>
<polygon fill="#8dd3c7" stroke="black" points="3230.4,-187 3227.4,-191 3206.4,-191 3203.4,-187 3089.6,-187 3089.6,-151 3230.4,-151 3230.4,-187"/>
<text text-anchor="middle" x="3160" y="-164.8" font-family="Times,serif" font-size="14.00">ViewerLayoutModule</text>
</g>
<!-- RegistrosComponent&#45;&gt;ViewerLayoutModule -->
<g id="edge25" class="edge">
<title>RegistrosComponent&#45;&gt;ViewerLayoutModule</title>
<path fill="none" stroke="black" d="M3160,-122.11C3160,-122.11 3160,-140.99 3160,-140.99"/>
<polygon fill="black" stroke="black" points="3156.5,-140.99 3160,-150.99 3163.5,-140.99 3156.5,-140.99"/>
</g>
</g>
</svg>
